<?xml version="1.0" encoding="utf-8"?>
<!-- Generator: Adobe Illustrator 23.0.6, SVG Export Plug-In . SVG Version: 6.00 Build 0)  -->
<svg version="1.1" id="Capa_1" xmlns="http://www.w3.org/2000/svg" xmlns:xlink="http://www.w3.org/1999/xlink" x="0px" y="0px"
	 viewBox="0 0 489.2 176" style="enable-background:new 0 0 489.2 176;" xml:space="preserve">
<style type="text/css">
	.st0{fill:#FFFFFF;}
</style>
<g>
	<path class="st0" d="M476.8,79.7c-24.1-25.5-48.2-51.5-73.3-76.1c-5.1-5-12.1-4.6-17,0.3c-4.9,4.8-4.4,12.1,0.2,16.9
		c17.5,18.4,34.9,36.6,52.5,54.9h-0.1C300.3,77.6,160.6,75.9,22,76.4c-9,0-12.1,4.5-12.3,12s2.7,12.3,11.8,12.3
		c138.8,0,278.6-6.7,417.6-0.4c0.1,0,0.1,0,0.1,0c-17.5,17.6-36,33.8-53.7,51.4c-4.6,4.6-4.6,11.8-0.2,16.8c2.2,2.5,5.2,3.8,8.6,3.7
		s6.2-0.8,8.7-3.3c25-23.8,50.2-47.3,74.3-72.1C481.6,91.8,481.7,84.8,476.8,79.7z"/>
</g>
</svg>
