<?xml version="1.0" encoding="utf-8"?>
<!-- Generator: Adobe Illustrator 23.0.6, SVG Export Plug-In . SVG Version: 6.00 Build 0)  -->
<svg version="1.1" id="Capa_1" xmlns="http://www.w3.org/2000/svg" xmlns:xlink="http://www.w3.org/1999/xlink" x="0px" y="0px"
	 viewBox="0 0 489.2 176" style="enable-background:new 0 0 489.2 176;" xml:space="preserve">
<style type="text/css">
	.st0{fill:#FFFFFF;}
</style>
<g>
	<path class="st0" d="M13.3,92.5C37.4,118,61.5,144,86.6,168.6c5.1,5,12.1,4.6,17-0.3c4.9-4.8,4.4-12.1-0.2-16.9
		C85.9,133,68.5,114.8,50.9,96.5H51c138.8-1.9,278.5-0.2,417.1-0.7c9,0,12.1-4.5,12.3-12c0.2-7.5-2.7-12.3-11.8-12.3
		C329.8,71.5,190,78.2,51,71.9c-0.1,0-0.1,0-0.1,0c17.5-17.6,36-33.8,53.7-51.4c4.6-4.6,4.6-11.8,0.2-16.8c-2.2-2.5-5.2-3.8-8.6-3.7
		S90,0.8,87.5,3.3c-25,23.8-50.2,47.3-74.3,72.1C8.5,80.4,8.4,87.4,13.3,92.5z"/>
</g>
</svg>
